<svg width="1543" height="320" viewBox="0 0 1543 320" fill="none" xmlns="http://www.w3.org/2000/svg">
<g clip-path="url(#clip0_2008_2)">
<path d="M99.062 94.375C117.312 94.375 131.437 97 141.437 102.25C151.437 107.25 158.687 113.875 163.187 122.125C167.937 130.375 170.687 139.875 171.437 150.625C172.187 161.375 172.562 172.375 172.562 183.625V286H142.187V267.625C134.937 274.625 125.687 280.25 114.437 284.5C103.187 288.5 91.937 290.5 80.687 290.5C69.937 290.5 60.437 288.625 52.187 284.875C43.937 281.125 37.062 276.25 31.562 270.25C26.062 264.25 21.937 257.5 19.187 250C16.437 242.5 15.062 234.875 15.062 227.125C15.062 219.125 16.562 211.125 19.562 203.125C22.562 195.125 27.062 188 33.062 181.75C39.062 175.25 46.437 170 55.187 166C63.937 162 73.937 160 85.187 160C96.437 160 107.062 162.25 117.062 166.75C127.312 171 135.687 177.125 142.187 185.125V169C142.187 148.5 139.062 133.25 132.812 123.25C126.812 113.25 115.687 108.25 99.437 108.25C92.437 108.25 86.312 109.125 81.062 110.875C75.812 112.625 71.062 115.125 66.812 118.375C62.812 121.375 59.062 125.25 55.562 130C52.062 134.5 48.562 139.625 45.062 145.375L25.562 125.875C29.062 122.125 32.687 118.375 36.437 114.625C40.437 110.875 45.187 107.5 50.687 104.5C56.437 101.5 63.187 99.125 70.937 97.375C78.687 95.375 88.062 94.375 99.062 94.375ZM142.187 211.75C140.937 208.75 139.062 205.25 136.562 201.25C134.312 197.25 131.312 193.375 127.562 189.625C123.812 185.875 119.312 182.75 114.062 180.25C108.812 177.5 102.562 176.125 95.312 176.125C88.062 176.125 81.437 177.625 75.437 180.625C69.437 183.375 64.312 187.125 60.062 191.875C56.062 196.375 52.937 201.75 50.687 208C48.437 214.25 47.312 220.75 47.312 227.5C47.312 235.5 48.687 242.5 51.437 248.5C54.437 254.25 58.187 259.25 62.687 263.5C67.187 267.5 72.187 270.5 77.687 272.5C83.187 274.5 88.437 275.5 93.437 275.5C98.187 275.5 102.937 274.625 107.687 272.875C112.687 271.125 117.312 268.75 121.562 265.75C126.062 262.5 130.062 258.75 133.562 254.5C137.062 250.25 139.937 245.625 142.187 240.625V211.75ZM245.702 23.5V286H213.827V23.5H245.702ZM318.885 286H287.01V98.5H318.885V128.875H320.385C323.385 121.625 327.135 115.75 331.635 111.25C336.385 106.75 341.385 103.25 346.635 100.75C351.885 98.25 357.135 96.625 362.385 95.875C367.635 94.875 372.135 94.375 375.885 94.375C384.135 94.375 391.135 95.5 396.885 97.75C402.885 100 408.01 102.875 412.26 106.375C416.51 109.875 420.01 113.75 422.76 118C425.51 122 427.635 126 429.135 130H431.76C435.51 122.25 439.885 116 444.885 111.25C450.135 106.5 455.51 102.875 461.01 100.375C466.51 97.875 471.76 96.25 476.76 95.5C481.76 94.75 486.135 94.375 489.885 94.375C502.885 94.375 513.26 96.5 521.01 100.75C529.01 104.75 535.01 109.875 539.01 116.125C543.26 122.125 546.01 128.75 547.26 136C548.51 143 549.135 149.375 549.135 155.125V286H517.26V166C517.26 157.5 516.76 150 515.76 143.5C515.01 137 513.26 131.5 510.51 127C508.01 122.5 504.385 119.125 499.635 116.875C494.885 114.625 488.635 113.5 480.885 113.5C470.385 113.5 462.01 115.875 455.76 120.625C449.76 125.375 445.135 131.125 441.885 137.875C438.635 144.625 436.51 151.875 435.51 159.625C434.51 167.125 434.01 173.625 434.01 179.125V286H402.135V166C402.135 161.5 401.885 156.25 401.385 150.25C401.135 144.25 399.885 138.5 397.635 133C395.385 127.5 391.885 122.875 387.135 119.125C382.635 115.375 376.135 113.5 367.635 113.5C355.885 113.5 346.76 116.125 340.26 121.375C333.76 126.375 328.885 132.5 325.635 139.75C322.635 146.75 320.76 154 320.01 161.5C319.26 168.75 318.885 174.625 318.885 179.125V286ZM583.026 98.5H614.901V222.25C614.901 224.75 615.151 228.75 615.651 234.25C616.151 239.5 617.776 244.875 620.526 250.375C623.526 255.875 627.901 260.75 633.651 265C639.651 269 647.901 271 658.401 271C664.901 271 671.151 269.875 677.151 267.625C683.151 265.375 688.401 262 692.901 257.5C697.401 252.75 701.026 246.875 703.776 239.875C706.526 232.875 707.901 224.5 707.901 214.75V98.5H739.776V286H707.901V262.375H706.401L700.401 268.375C691.651 277.125 682.901 283 674.151 286C665.651 289.25 657.776 290.75 650.526 290.5C634.026 290.5 621.151 287.75 611.901 282.25C602.901 276.5 596.276 269.875 592.026 262.375C587.776 254.625 585.151 246.875 584.151 239.125C583.401 231.125 583.026 224.875 583.026 220.375V98.5ZM931.421 286H899.546V162.625C899.546 160.125 899.296 156.125 898.796 150.625C898.296 145.125 896.671 139.625 893.921 134.125C891.421 128.625 887.296 123.875 881.546 119.875C875.796 115.625 867.671 113.5 857.171 113.5C850.671 113.5 844.296 114.625 838.046 116.875C832.046 119.125 826.671 122.625 821.921 127.375C817.171 132.125 813.421 138 810.671 145C807.921 152 806.546 160.375 806.546 170.125V286H774.671V98.5H806.546V122.5H808.046L814.046 116.5C822.796 107.75 831.671 101.875 840.671 98.875C849.671 95.625 857.796 94.125 865.046 94.375C881.546 94.375 894.296 97.25 903.296 103C912.296 108.5 918.796 115.125 922.796 122.875C927.046 130.375 929.546 138.125 930.296 146.125C931.046 153.875 931.421 160 931.421 164.5V286ZM978.317 98.5H1010.19V286H978.317V98.5ZM973.817 39.25C973.817 33.75 975.817 29 979.817 25C983.817 21 988.567 19 994.067 19C999.567 19 1004.32 21 1008.32 25C1012.32 29 1014.32 33.75 1014.32 39.25C1014.32 44.75 1012.32 49.5 1008.32 53.5C1004.32 57.5 999.567 59.5 994.067 59.5C988.567 59.5 983.817 57.5 979.817 53.5C975.817 49.5 973.817 44.75 973.817 39.25ZM1124.42 94.375C1142.67 94.375 1156.8 97 1166.8 102.25C1176.8 107.25 1184.05 113.875 1188.55 122.125C1193.3 130.375 1196.05 139.875 1196.8 150.625C1197.55 161.375 1197.92 172.375 1197.92 183.625V286H1167.55V267.625C1160.3 274.625 1151.05 280.25 1139.8 284.5C1128.55 288.5 1117.3 290.5 1106.05 290.5C1095.3 290.5 1085.8 288.625 1077.55 284.875C1069.3 281.125 1062.42 276.25 1056.92 270.25C1051.42 264.25 1047.3 257.5 1044.55 250C1041.8 242.5 1040.42 234.875 1040.42 227.125C1040.42 219.125 1041.92 211.125 1044.92 203.125C1047.92 195.125 1052.42 188 1058.42 181.75C1064.42 175.25 1071.8 170 1080.55 166C1089.3 162 1099.3 160 1110.55 160C1121.8 160 1132.42 162.25 1142.42 166.75C1152.67 171 1161.05 177.125 1167.55 185.125V169C1167.55 148.5 1164.42 133.25 1158.17 123.25C1152.17 113.25 1141.05 108.25 1124.8 108.25C1117.8 108.25 1111.67 109.125 1106.42 110.875C1101.17 112.625 1096.42 115.125 1092.17 118.375C1088.17 121.375 1084.42 125.25 1080.92 130C1077.42 134.5 1073.92 139.625 1070.42 145.375L1050.92 125.875C1054.42 122.125 1058.05 118.375 1061.8 114.625C1065.8 110.875 1070.55 107.5 1076.05 104.5C1081.8 101.5 1088.55 99.125 1096.3 97.375C1104.05 95.375 1113.42 94.375 1124.42 94.375ZM1167.55 211.75C1166.3 208.75 1164.42 205.25 1161.92 201.25C1159.67 197.25 1156.67 193.375 1152.92 189.625C1149.17 185.875 1144.67 182.75 1139.42 180.25C1134.17 177.5 1127.92 176.125 1120.67 176.125C1113.42 176.125 1106.8 177.625 1100.8 180.625C1094.8 183.375 1089.67 187.125 1085.42 191.875C1081.42 196.375 1078.3 201.75 1076.05 208C1073.8 214.25 1072.67 220.75 1072.67 227.5C1072.67 235.5 1074.05 242.5 1076.8 248.5C1079.8 254.25 1083.55 259.25 1088.05 263.5C1092.55 267.5 1097.55 270.5 1103.05 272.5C1108.55 274.5 1113.8 275.5 1118.8 275.5C1123.55 275.5 1128.3 274.625 1133.05 272.875C1138.05 271.125 1142.67 268.75 1146.92 265.75C1151.42 262.5 1155.42 258.75 1158.92 254.5C1162.42 250.25 1165.3 245.625 1167.55 240.625V211.75Z" fill="#333C4D"/>
<ellipse cx="1415.5" cy="191.215" rx="127.5" ry="128.785" fill="#FFA800"/>
<path d="M1404.53 33.1392C1426.67 59.5032 1434.32 89.51 1421.62 100.161C1408.91 110.813 1380.67 98.0751 1358.53 71.7111C1336.39 45.3471 1328.74 15.3403 1341.44 4.68899C1354.15 -5.96234 1382.39 6.77526 1404.53 33.1392Z" fill="#469D49" fill-opacity="0.9"/>
<path d="M1416.48 102.98C1430.9 103.511 1451.77 91.2558 1468.96 70.7844C1491.1 44.4205 1498.75 14.4136 1486.05 3.76231C1473.34 -6.88902 1445.1 5.84859 1422.96 32.2126C1419.41 36.4427 1416.23 40.7666 1413.44 45.0893C1428.5 68.0148 1432.43 91.0969 1421.62 100.161C1420.11 101.424 1418.39 102.359 1416.48 102.98Z" fill="#469D49" fill-opacity="0.9"/>
</g>
<defs>
<clipPath id="clip0_2008_2">
<rect width="1543" height="320" fill="white"/>
</clipPath>
</defs>
</svg>
