<svg width="1677" height="503" viewBox="0 0 1677 503" fill="none" xmlns="http://www.w3.org/2000/svg">
<path d="M154.062 185.375C172.312 185.375 186.437 188 196.437 193.25C206.437 198.25 213.687 204.875 218.187 213.125C222.937 221.375 225.687 230.875 226.437 241.625C227.187 252.375 227.562 263.375 227.562 274.625V377H197.187V358.625C189.937 365.625 180.687 371.25 169.437 375.5C158.187 379.5 146.937 381.5 135.687 381.5C124.937 381.5 115.437 379.625 107.187 375.875C98.937 372.125 92.062 367.25 86.562 361.25C81.062 355.25 76.937 348.5 74.187 341C71.437 333.5 70.062 325.875 70.062 318.125C70.062 310.125 71.562 302.125 74.562 294.125C77.562 286.125 82.062 279 88.062 272.75C94.062 266.25 101.437 261 110.187 257C118.937 253 128.937 251 140.187 251C151.437 251 162.062 253.25 172.062 257.75C182.312 262 190.687 268.125 197.187 276.125V260C197.187 239.5 194.062 224.25 187.812 214.25C181.812 204.25 170.687 199.25 154.437 199.25C147.437 199.25 141.312 200.125 136.062 201.875C130.812 203.625 126.062 206.125 121.812 209.375C117.812 212.375 114.062 216.25 110.562 221C107.062 225.5 103.562 230.625 100.062 236.375L80.562 216.875C84.062 213.125 87.687 209.375 91.437 205.625C95.437 201.875 100.187 198.5 105.687 195.5C111.437 192.5 118.187 190.125 125.937 188.375C133.687 186.375 143.062 185.375 154.062 185.375ZM197.187 302.75C195.937 299.75 194.062 296.25 191.562 292.25C189.312 288.25 186.312 284.375 182.562 280.625C178.812 276.875 174.312 273.75 169.062 271.25C163.812 268.5 157.562 267.125 150.312 267.125C143.062 267.125 136.437 268.625 130.437 271.625C124.437 274.375 119.312 278.125 115.062 282.875C111.062 287.375 107.937 292.75 105.687 299C103.437 305.25 102.312 311.75 102.312 318.5C102.312 326.5 103.687 333.5 106.437 339.5C109.437 345.25 113.187 350.25 117.687 354.5C122.187 358.5 127.187 361.5 132.687 363.5C138.187 365.5 143.437 366.5 148.437 366.5C153.187 366.5 157.937 365.625 162.687 363.875C167.687 362.125 172.312 359.75 176.562 356.75C181.062 353.5 185.062 349.75 188.562 345.5C192.062 341.25 194.937 336.625 197.187 331.625V302.75ZM300.702 114.5V377H268.827V114.5H300.702ZM373.885 377H342.01V189.5H373.885V219.875H375.385C378.385 212.625 382.135 206.75 386.635 202.25C391.385 197.75 396.385 194.25 401.635 191.75C406.885 189.25 412.135 187.625 417.385 186.875C422.635 185.875 427.135 185.375 430.885 185.375C439.135 185.375 446.135 186.5 451.885 188.75C457.885 191 463.01 193.875 467.26 197.375C471.51 200.875 475.01 204.75 477.76 209C480.51 213 482.635 217 484.135 221H486.76C490.51 213.25 494.885 207 499.885 202.25C505.135 197.5 510.51 193.875 516.01 191.375C521.51 188.875 526.76 187.25 531.76 186.5C536.76 185.75 541.135 185.375 544.885 185.375C557.885 185.375 568.26 187.5 576.01 191.75C584.01 195.75 590.01 200.875 594.01 207.125C598.26 213.125 601.01 219.75 602.26 227C603.51 234 604.135 240.375 604.135 246.125V377H572.26V257C572.26 248.5 571.76 241 570.76 234.5C570.01 228 568.26 222.5 565.51 218C563.01 213.5 559.385 210.125 554.635 207.875C549.885 205.625 543.635 204.5 535.885 204.5C525.385 204.5 517.01 206.875 510.76 211.625C504.76 216.375 500.135 222.125 496.885 228.875C493.635 235.625 491.51 242.875 490.51 250.625C489.51 258.125 489.01 264.625 489.01 270.125V377H457.135V257C457.135 252.5 456.885 247.25 456.385 241.25C456.135 235.25 454.885 229.5 452.635 224C450.385 218.5 446.885 213.875 442.135 210.125C437.635 206.375 431.135 204.5 422.635 204.5C410.885 204.5 401.76 207.125 395.26 212.375C388.76 217.375 383.885 223.5 380.635 230.75C377.635 237.75 375.76 245 375.01 252.5C374.26 259.75 373.885 265.625 373.885 270.125V377ZM638.026 189.5H669.901V313.25C669.901 315.75 670.151 319.75 670.651 325.25C671.151 330.5 672.776 335.875 675.526 341.375C678.526 346.875 682.901 351.75 688.651 356C694.651 360 702.901 362 713.401 362C719.901 362 726.151 360.875 732.151 358.625C738.151 356.375 743.401 353 747.901 348.5C752.401 343.75 756.026 337.875 758.776 330.875C761.526 323.875 762.901 315.5 762.901 305.75V189.5H794.776V377H762.901V353.375H761.401L755.401 359.375C746.651 368.125 737.901 374 729.151 377C720.651 380.25 712.776 381.75 705.526 381.5C689.026 381.5 676.151 378.75 666.901 373.25C657.901 367.5 651.276 360.875 647.026 353.375C642.776 345.625 640.151 337.875 639.151 330.125C638.401 322.125 638.026 315.875 638.026 311.375V189.5ZM986.421 377H954.546V253.625C954.546 251.125 954.296 247.125 953.796 241.625C953.296 236.125 951.671 230.625 948.921 225.125C946.421 219.625 942.296 214.875 936.546 210.875C930.796 206.625 922.671 204.5 912.171 204.5C905.671 204.5 899.296 205.625 893.046 207.875C887.046 210.125 881.671 213.625 876.921 218.375C872.171 223.125 868.421 229 865.671 236C862.921 243 861.546 251.375 861.546 261.125V377H829.671V189.5H861.546V213.5H863.046L869.046 207.5C877.796 198.75 886.671 192.875 895.671 189.875C904.671 186.625 912.796 185.125 920.046 185.375C936.546 185.375 949.296 188.25 958.296 194C967.296 199.5 973.796 206.125 977.796 213.875C982.046 221.375 984.546 229.125 985.296 237.125C986.046 244.875 986.421 251 986.421 255.5V377ZM1033.32 189.5H1065.19V377H1033.32V189.5ZM1028.82 130.25C1028.82 124.75 1030.82 120 1034.82 116C1038.82 112 1043.57 110 1049.07 110C1054.57 110 1059.32 112 1063.32 116C1067.32 120 1069.32 124.75 1069.32 130.25C1069.32 135.75 1067.32 140.5 1063.32 144.5C1059.32 148.5 1054.57 150.5 1049.07 150.5C1043.57 150.5 1038.82 148.5 1034.82 144.5C1030.82 140.5 1028.82 135.75 1028.82 130.25ZM1179.42 185.375C1197.67 185.375 1211.8 188 1221.8 193.25C1231.8 198.25 1239.05 204.875 1243.55 213.125C1248.3 221.375 1251.05 230.875 1251.8 241.625C1252.55 252.375 1252.92 263.375 1252.92 274.625V377H1222.55V358.625C1215.3 365.625 1206.05 371.25 1194.8 375.5C1183.55 379.5 1172.3 381.5 1161.05 381.5C1150.3 381.5 1140.8 379.625 1132.55 375.875C1124.3 372.125 1117.42 367.25 1111.92 361.25C1106.42 355.25 1102.3 348.5 1099.55 341C1096.8 333.5 1095.42 325.875 1095.42 318.125C1095.42 310.125 1096.92 302.125 1099.92 294.125C1102.92 286.125 1107.42 279 1113.42 272.75C1119.42 266.25 1126.8 261 1135.55 257C1144.3 253 1154.3 251 1165.55 251C1176.8 251 1187.42 253.25 1197.42 257.75C1207.67 262 1216.05 268.125 1222.55 276.125V260C1222.55 239.5 1219.42 224.25 1213.17 214.25C1207.17 204.25 1196.05 199.25 1179.8 199.25C1172.8 199.25 1166.67 200.125 1161.42 201.875C1156.17 203.625 1151.42 206.125 1147.17 209.375C1143.17 212.375 1139.42 216.25 1135.92 221C1132.42 225.5 1128.92 230.625 1125.42 236.375L1105.92 216.875C1109.42 213.125 1113.05 209.375 1116.8 205.625C1120.8 201.875 1125.55 198.5 1131.05 195.5C1136.8 192.5 1143.55 190.125 1151.3 188.375C1159.05 186.375 1168.42 185.375 1179.42 185.375ZM1222.55 302.75C1221.3 299.75 1219.42 296.25 1216.92 292.25C1214.67 288.25 1211.67 284.375 1207.92 280.625C1204.17 276.875 1199.67 273.75 1194.42 271.25C1189.17 268.5 1182.92 267.125 1175.67 267.125C1168.42 267.125 1161.8 268.625 1155.8 271.625C1149.8 274.375 1144.67 278.125 1140.42 282.875C1136.42 287.375 1133.3 292.75 1131.05 299C1128.8 305.25 1127.67 311.75 1127.67 318.5C1127.67 326.5 1129.05 333.5 1131.8 339.5C1134.8 345.25 1138.55 350.25 1143.05 354.5C1147.55 358.5 1152.55 361.5 1158.05 363.5C1163.55 365.5 1168.8 366.5 1173.8 366.5C1178.55 366.5 1183.3 365.625 1188.05 363.875C1193.05 362.125 1197.67 359.75 1201.92 356.75C1206.42 353.5 1210.42 349.75 1213.92 345.5C1217.42 341.25 1220.3 336.625 1222.55 331.625V302.75Z" fill="black"/>
<ellipse cx="1483" cy="282.881" rx="124.763" ry="126.119" fill="#FFA800"/>
<path d="M1472.27 128.078C1493.93 153.896 1501.42 183.282 1488.99 193.713C1476.56 204.143 1448.92 191.669 1427.25 165.851C1405.59 140.033 1398.1 110.647 1410.53 100.216C1422.97 89.7856 1450.61 102.26 1472.27 128.078Z" fill="#469D49" fill-opacity="0.9"/>
<path d="M1483.96 196.473C1498.07 196.993 1518.49 184.991 1535.31 164.944C1556.98 139.125 1564.46 109.74 1552.03 99.3089C1539.6 88.8781 1511.96 101.352 1490.3 127.17C1486.82 131.313 1483.71 135.547 1480.99 139.78C1495.72 162.231 1499.57 184.836 1488.99 193.713C1487.51 194.95 1485.82 195.865 1483.96 196.473Z" fill="#469D49" fill-opacity="0.9"/>
</svg>
